<?xml version="1.0" encoding="UTF-8"?><svg id="Layer_2" xmlns="http://www.w3.org/2000/svg" viewBox="0 0 281.94 80.03"><defs><style>.cls-1{fill:#104773;}</style></defs><g id="meteoblue_-_A_Windy.com_Company"><path class="cls-1" d="M23.79,16.58c2.7-2.52,5.92-4.6,11.41-4.03,3.19.33,6.19,2.42,7.65,4.73,1.78,2.81,1.87,6.8,1.79,11.15,0,5.4.02,11.34.02,16.39h-6.44c0-4.4-.05-10.99-.05-16.16,0-1.41.07-2.72-.05-3.87-.35-3.2-2.65-5.83-6.26-5.84-4.89-.02-6.24,3.62-6.5,8.7,0,5.48.1,12.17.1,17.18h-6.4c0-5.35.09-11.53.09-16.95,0-.97,0-1.91-.09-2.81-.42-4.49-5.13-7.97-9.74-5.15-.64.39-1.35,1.05-1.74,1.72-1.2,1.5-1.05,4.05-1.12,6.84-.04,1.66.08,13.24.08,16.34H0v-21.98c0-5.73,5.53-9.74,10.85-10.29,5.83-.6,9.98,1.29,12.94,4.03Z"/><path class="cls-1" d="M78.04,31.33h-19.89c-.9,8.52,10.34,9.91,14.61,4.87,1.62,1.25,3.33,2.42,4.59,4.04-4.18,5.99-16.32,6.44-21.42,1.53-4.03-3.87-5.14-11.4-3.9-17.81,1.29-6.65,5.87-12.04,14.19-11.41,8.8.67,12.79,8.16,11.83,18.78h-.01ZM63.57,18.67c-3.44.46-5.24,3.36-5.43,7.23h13.35c-.17-4.74-2.99-7.89-7.93-7.23h.01Z"/><path class="cls-1" d="M91.5,3.16v9.6h4.71c0,1.45.02,3.35.02,5.01h-4.72c0,2.83-.01,6.62,0,10.49,0,1.92-.02,3.85-.02,5.65,0,1.69-.22,3.84.87,4.56.82.54,2.57.37,3.86.37v5.93c-6.34.52-10.76-1.28-11.13-6.4-.23-3.11-.06-6.63-.06-10.25.15-3.54.06-7,.06-10.34h-3.34v-5.01h3.33c0-2.88-.02-6.69-.02-9.6h6.44Z"/><path class="cls-1" d="M127.01,31.33h-19.89c-.6,8.48,10.24,9.97,14.61,4.87,1.62,1.25,3.34,2.41,4.59,4.04-2.87,3-6.18,5.01-11.55,5.01-9.46,0-14.12-6.52-14.19-16.14-.06-8.99,4.22-17.55,14.88-16.55,8.56.8,12.56,8.22,11.55,18.78h0ZM112.54,18.67c-3.44.47-5.21,3.36-5.43,7.23h13.49c-.22-4.72-3.05-7.92-8.07-7.23h.01Z"/><path class="cls-1" d="M143.42,12.69c6.77-.78,11.82,2.63,13.77,6.95,1.77,3.91,1.96,14.83-.14,18.78-5.07,9.53-19.88,8.54-23.65-.56-2.18-5.25-1.52-14.77.28-18.5,1.67-3.47,5.14-6.15,9.74-6.68h0ZM139.25,22.84c-1.14,2.78-1.09,9.7.14,12.38,1.73,3.76,7.38,4.74,10.43,2.09,2.45-2.12,3.25-10.59,1.67-14.47-.89-2.19-3.56-4.06-6.82-3.76-3.08.29-4.62,1.8-5.43,3.76h0Z"/><path class="cls-1" d="M165.27.03h6.53v16c1.38-.8,2.41-1.97,3.9-2.64,6.17-2.8,13.14,1.22,14.61,6.26,1.17,4.01,1.04,16.13-.69,19.2-.3.54-.72,1.18-1.11,1.67-5.13,6.27-17.43,6.18-21.7-.97-2.44-4.09-1.53-12.57-1.53-18.78V.46c0,.06,0-.43,0-.42h0ZM174.17,20.06c-3.14,2.42-3.23,13.31-.97,16.69,2.21,3.3,8.55,2.32,10.15-.7,1.19-2.24,1.21-7.04.97-10.29-.34-4.65-2.22-7.1-6.96-6.68-1.49.13-2.39.35-3.2.97h.01Z"/><path class="cls-1" d="M197.96.03h6.53c0,8.73-.03,19.24-.03,29.07v7.56c0,.79.25,1.38.51,1.62.92.83,3.05.42,4.11.56v5.98c-1.3.11-2.56.13-3.74.03-4.24-.35-6.72-1.82-7.42-6.43-.02-.13-.02-.25-.02-.38,0-5.42.05-12.24.05-18.67V3.78c0-1.14,0-4.03,0-3.76h.01Z"/><path class="cls-1" d="M214.37,12.83h6.26c0,5.3,0,12.71,0,18.16,0,.96.02,1.86.12,2.68.17,1.43.84,2.27,1.33,2.93.67.88,1.1,1.23,2.15,1.69,1.8.78,3.9.68,5.28.14,2.38-.92,3.78-3.34,3.78-6.47.02-.17.04-.34.05-.51,0-5.62-.08-13.35-.08-18.61h6.54c-.17,2.51,0,5.14,0,7.79v14.75c0,3.42-3.99,8.22-9.38,9.54-5.18,1.27-11.71-.78-14.55-4.95-.86-1.26-1.76-2.75-1.76-4.63,0-6.13.09-15.36.09-22.47,0-.04-.02,0,.14-.02l.02-.02Z"/><path class="cls-1" d="M272.8,31.33h-19.89c-.71,8.45,10.27,9.97,14.61,4.87,1.71,1.07,3.06,2.5,4.59,3.76-2.52,3.3-6.16,5.25-11.41,5.29-8.58.05-13.59-5.58-14.19-13.77-.74-10.18,3.31-19.9,14.61-18.92,8.68.76,12.72,8.12,11.69,18.78h0ZM258.37,18.68c-3.44.47-5.22,3.36-5.43,7.23h13.49c-.22-4.72-3.05-7.92-8.07-7.23h.01Z"/><path class="cls-1" d="M281.94,7.81c0,2.34-1.83,4.17-4.22,4.17s-4.25-1.83-4.25-4.17,1.88-4.12,4.25-4.12,4.22,1.83,4.22,4.12ZM274.52,7.81c0,1.84,1.36,3.29,3.22,3.29s3.14-1.46,3.14-3.27-1.33-3.32-3.17-3.32-3.19,1.48-3.19,3.29h0ZM277.06,9.97h-.96v-4.12c.38-.08.9-.13,1.58-.13.78,0,1.13.13,1.43.3.23.18.4.5.4.9,0,.45-.35.8-.85.96v.05c.4.15.63.45.75,1.01.13.63.2.88.3,1.03h-1.03c-.13-.15-.2-.53-.33-1.01-.08-.45-.33-.65-.85-.65h-.45v1.66h.01ZM277.09,7.63h.45c.53,0,.96-.18.96-.6,0-.38-.28-.63-.88-.63-.25,0-.43.03-.53.05v1.18Z"/><path class="cls-1" d="M263.81,77.72c1.48,0,2.17-1.18,2.93-3.07l-3.55-8.19c-.05-.12-.09-.28-.09-.48,0-.69.55-1.25,1.25-1.25s1.04.48,1.15.78l2.54,6.41,2.54-6.41c.11-.3.46-.78,1.15-.78s1.25.55,1.25,1.25c0,.21-.05.37-.09.48l-4.29,9.69c-1.01,2.26-2.47,3.88-4.78,3.88-.67,0-1.2-.48-1.2-1.15s.53-1.15,1.2-1.15h-.01Z"/><path class="cls-1" d="M258.24,64.59c3.14,0,3.88,2.01,3.88,4.01v5.77c0,.69-.55,1.2-1.25,1.2-.74,0-1.25-.51-1.25-1.2v-5.31c0-1.32-.53-2.22-2.03-2.22-1.73,0-2.31,1.02-2.31,2.38v5.15c0,.69-.53,1.2-1.25,1.2s-1.25-.51-1.25-1.2v-8.4c0-.69.55-1.25,1.25-1.25s1.25.55,1.25,1.25c.44-.67,1.41-1.38,2.95-1.38h0Z"/><path class="cls-1" d="M246.04,66.81c-1.01,0-1.73.46-2.31.88-.23.16-.42.23-.69.23-.6,0-1.08-.48-1.08-1.08,0-.25.09-.53.3-.76.65-.71,1.8-1.48,3.78-1.48,2.86,0,4.57,1.41,4.57,3.85v5.91c0,.67-.55,1.22-1.22,1.22s-1.22-.55-1.22-1.22c-.62.99-1.64,1.34-3.02,1.34-2.26,0-3.76-1.41-3.76-3.48s1.73-3.25,3.74-3.25h3.02v-.42c0-1.04-.76-1.73-2.1-1.73h-.01ZM245.79,73.61c1.22,0,2.35-.78,2.35-2.08v-.65h-2.7c-1.01,0-1.57.48-1.57,1.32s.62,1.41,1.92,1.41Z"/><path class="cls-1" d="M232.67,65.97c.35-.58,1.43-1.38,2.72-1.38,3.02,0,4.68,1.78,4.68,5.54s-1.68,5.56-4.68,5.56c-1.15,0-2.17-.37-2.72-.99v4.08c0,.69-.55,1.25-1.25,1.25s-1.25-.55-1.25-1.25v-12.81c0-.69.55-1.25,1.25-1.25s1.25.55,1.25,1.25ZM237.53,70.15c0-2.28-.85-3.44-2.47-3.44s-2.47,1.15-2.47,3.44.85,3.41,2.47,3.41,2.47-1.15,2.47-3.41Z"/><path class="cls-1" d="M223.88,64.59c3.14,0,3.99,2.01,3.99,4.01v5.77c0,.69-.55,1.2-1.25,1.2-.74,0-1.25-.51-1.25-1.2v-5.31c0-1.32-.53-2.22-2.03-2.22-1.66,0-2.31.9-2.31,2.19v5.33c0,.69-.55,1.2-1.25,1.2-.74,0-1.25-.51-1.25-1.2v-5.31c0-1.32-.53-2.22-2.03-2.22-1.73,0-2.31,1.02-2.31,2.38v5.15c0,.69-.53,1.2-1.25,1.2s-1.25-.51-1.25-1.2v-8.4c0-.69.55-1.25,1.25-1.25s1.25.55,1.25,1.25c.44-.67,1.41-1.38,2.95-1.38,1.89,0,2.84.6,3.41,1.5.74-.99,1.73-1.5,3.3-1.5h.03Z"/><path class="cls-1" d="M209.89,70.15c0,3.76-1.94,5.54-5.05,5.54s-5.05-1.78-5.05-5.54,1.94-5.56,5.05-5.56,5.05,1.78,5.05,5.56ZM207.38,70.15c0-2.28-.88-3.44-2.54-3.44s-2.54,1.15-2.54,3.44.88,3.41,2.54,3.41,2.54-1.15,2.54-3.41Z"/><path class="cls-1" d="M192.37,75.71c-4.59,0-7.22-2.42-7.22-8.08s2.63-8.1,7.22-8.1c2.79,0,4.61,1.11,5.56,2.49.18.28.25.51.25.76,0,.67-.55,1.22-1.25,1.22-.32,0-.65-.14-.95-.46-.95-1.04-1.94-1.61-3.62-1.61-3.07,0-4.45,1.89-4.45,5.7,0,4.04,1.38,5.68,4.45,5.68,1.71,0,2.63-.39,3.74-1.52.37-.37.67-.51.99-.51.69,0,1.25.55,1.25,1.25,0,.28-.09.51-.23.69-1.11,1.48-3.28,2.49-5.75,2.49h0Z"/><path class="cls-1" d="M174.13,64.59c3.14,0,3.99,2.01,3.99,4.01v5.77c0,.69-.55,1.2-1.25,1.2-.74,0-1.25-.51-1.25-1.2v-5.31c0-1.32-.53-2.22-2.03-2.22-1.66,0-2.31.9-2.31,2.19v5.33c0,.69-.55,1.2-1.25,1.2-.74,0-1.25-.51-1.25-1.2v-5.31c0-1.32-.53-2.22-2.03-2.22-1.73,0-2.31,1.02-2.31,2.38v5.15c0,.69-.53,1.2-1.25,1.2s-1.25-.51-1.25-1.2v-8.4c0-.69.55-1.25,1.25-1.25s1.25.55,1.25,1.25c.44-.67,1.41-1.38,2.95-1.38,1.89,0,2.84.6,3.41,1.5.74-.99,1.73-1.5,3.3-1.5h.03Z"/><path class="cls-1" d="M160.14,70.15c0,3.76-1.94,5.54-5.05,5.54s-5.05-1.78-5.05-5.54,1.94-5.56,5.05-5.56,5.05,1.78,5.05,5.56ZM157.63,70.15c0-2.28-.88-3.44-2.54-3.44s-2.54,1.15-2.54,3.44.88,3.41,2.54,3.41,2.54-1.15,2.54-3.41Z"/><path class="cls-1" d="M139.63,70.13c0-3.76,1.87-5.54,5.01-5.54,2.12,0,3.35,1.06,3.76,1.59.18.25.25.44.25.72,0,.62-.48,1.11-1.11,1.11-.37,0-.65-.16-.85-.39-.3-.32-.9-.9-2.05-.9-1.61,0-2.49,1.25-2.49,3.41s.88,3.44,2.49,3.44c1.06,0,1.75-.53,2.28-.92.25-.18.46-.23.69-.23.62,0,1.11.48,1.11,1.11,0,.32-.11.6-.39.85-.53.48-1.8,1.32-3.69,1.32-3.14,0-5.01-1.8-5.01-5.56h0Z"/><path class="cls-1" d="M136.38,75.57c-.97,0-1.52-.48-1.52-1.5s.55-1.55,1.52-1.55,1.5.51,1.5,1.55-.53,1.5-1.5,1.5Z"/><path class="cls-1" d="M126.41,77.72c1.48,0,2.17-1.18,2.93-3.07l-3.55-8.19c-.05-.12-.09-.28-.09-.48,0-.69.55-1.25,1.25-1.25s1.04.48,1.15.78l2.54,6.41,2.54-6.41c.12-.3.46-.78,1.15-.78s1.25.55,1.25,1.25c0,.21-.05.37-.09.48l-4.29,9.69c-1.01,2.26-2.47,3.88-4.78,3.88-.67,0-1.2-.48-1.2-1.15s.53-1.15,1.2-1.15h0Z"/><path class="cls-1" d="M122,71.07v-3.18s-.9-1.18-2.28-1.18c-1.57,0-2.47,1.15-2.47,3.44s.88,3.41,2.47,3.41c1.34,0,2.28-.9,2.28-2.49ZM119.46,64.59c1.11,0,2.08.46,2.54.92v-5.31c0-.69.55-1.25,1.25-1.25s1.25.55,1.25,1.25v10.87c0,3.07-1.98,4.61-4.78,4.61-3.12,0-4.94-1.78-4.94-5.54s1.78-5.56,4.68-5.56h0Z"/><path class="cls-1" d="M109.19,64.59c3.14,0,3.88,2.01,3.88,4.01v5.77c0,.69-.55,1.2-1.25,1.2-.74,0-1.25-.51-1.25-1.2v-5.31c0-1.32-.53-2.22-2.03-2.22-1.73,0-2.31,1.02-2.31,2.38v5.15c0,.69-.53,1.2-1.25,1.2s-1.25-.51-1.25-1.2v-8.4c0-.69.55-1.25,1.25-1.25s1.25.55,1.25,1.25c.44-.67,1.41-1.38,2.95-1.38h.01Z"/><path class="cls-1" d="M101.44,65.97v8.35c0,.69-.55,1.25-1.25,1.25s-1.25-.55-1.25-1.25v-8.35c0-.69.55-1.25,1.25-1.25s1.25.55,1.25,1.25ZM100.19,63.48c-.95,0-1.48-.55-1.48-1.45,0-1.06.53-1.52,1.48-1.52s1.5.46,1.5,1.52c0,.9-.53,1.45-1.5,1.45Z"/><path class="cls-1" d="M90.78,74.58l-2.65-9.46-2.65,9.46c-.16.58-.67.99-1.29.99s-1.11-.39-1.27-.92l-3.95-13.22c-.05-.14-.07-.25-.07-.42,0-.74.6-1.34,1.34-1.34s1.15.53,1.27.92l2.7,9.69,2.63-9.64c.16-.6.72-.97,1.29-.97s1.13.37,1.29.97l2.63,9.64,2.7-9.69c.12-.39.53-.92,1.27-.92s1.34.6,1.34,1.34c0,.16-.02.28-.07.42l-3.95,13.22c-.16.53-.67.92-1.27.92s-1.13-.42-1.29-.99h0Z"/><path class="cls-1" d="M67.95,68.9l-1.89-4.85-1.89,4.85h3.78ZM68.85,71.35h-5.58l-1.41,3.35c-.21.48-.65.88-1.25.88-.71,0-1.31-.6-1.31-1.32,0-.14.02-.32.09-.48l5.44-13.27c.14-.32.51-.83,1.22-.83s1.08.51,1.22.83l5.44,13.27c.07.16.09.35.09.48,0,.72-.6,1.32-1.32,1.32-.6,0-1.04-.39-1.25-.88l-1.41-3.35h.03Z"/></g></svg>